@startuml
'https://plantuml.com/class-diagram

interface Main {
    + main(): int
}
interface filemigrator.Migrator {
    +MigrateUniqueFiles(string, []string, map[string]common.FileRecord): error
}
interface filescanner.Scanner {
    +ScanDir(bool, []string)
}
interface deduper.DeDuper {
    +DeDuplicate(map[string][]common.FileRecord): common.DeDedupeOutput
}

filescanner <-- Main
filemigrator <-- Main
deduper <-- Main

@enduml